<?xml version="1.0" encoding="UTF-8"?>
<svg width="20pt" height="20pt" version="1.1" viewBox="0 0 700 700" xmlns="http://www.w3.org/2000/svg">
 <path d="m494.76 98.422c-3.9219-1.1211-7.9805-1.6797-12.32-1.5391-14-18.059-31.641-27.02-52.641-27.441-12.461-25.34-48.578-39.762-79.801-17.781-31.359-21.84-67.34-7.5586-79.801 17.781-21.141 0.42188-38.781 9.2383-52.641 27.441-4.3398-0.14062-8.3984 0.42188-12.32 1.5391-25.059-51.801-64.68-84-117.6-98-4.1992-1.1211-8.6797-0.14062-12.18 2.5195s-5.4609 6.7188-5.4609 11.059c0 43.121 0 82.602 7.2812 116.62 7.6992 36.68 23.379 67.34 54.32 90.578 0.69922 0.42188 1.2617 0.83984 1.9609 1.2617 1.3984 6.5781 3.9219 13.859 7.8398 21.84 3.3594 6.7188 7.6992 11.48 12.602 14.699 0.83984 31.219 8.8203 56.98 23.66 77.141-12.879 17.219-35 55.02-23.379 101.36 25.898 103.74 135.1 122.64 195.58 122.64 60.48 0 169.68-18.898 195.58-122.64 11.621-46.34-10.5-84.141-23.379-101.36 14.98-20.16 22.82-45.922 23.66-77.141 4.8984-3.2188 9.2383-7.9805 12.602-14.699 3.9219-7.9805 6.4414-15.121 7.8398-21.84 0.69922-0.42188 1.3984-0.83984 1.9609-1.2617 30.941-23.102 46.621-53.898 54.32-90.578 7.1406-34.16 7.2812-73.641 7.2812-116.62 0-4.3398-1.9609-8.3984-5.4609-11.059s-7.9805-3.5-12.18-2.3789c-53.059 14-92.68 46.059-117.6 98zm22.82 165.48c-8.6797-1.2617-17.219-4.6211-23.801-7.8398-10.219 11.621-21.422 18.059-33.18 20.16-12.32 2.2383-25.621-0.28125-39.621-7.4219-15.68 10.781-29.68 14.699-41.719 14-10.641-0.55859-20.441-4.4805-29.262-11.34-8.8203 6.8594-18.48 10.781-29.262 11.34-12.18 0.55859-26.039-3.3594-41.719-14-14 7.2812-27.441 9.6602-39.621 7.4219-11.762-2.1016-23.102-8.3984-33.18-20.16-6.5781 3.2188-15.121 6.5781-23.801 7.8398 1.5391 25.898 9.1016 46.898 23.941 62.578 5.1797 5.4609 5.0391 14.141-0.28125 19.461 0 0-36.398 36.262-24.359 84.699 22.121 88.34 116.9 101.36 168.42 101.36 51.52 0 146.3-13.02 168.42-101.36 12.039-48.441-24.359-84.699-24.359-84.699-5.3203-5.3203-5.4609-14-0.28125-19.461 14.699-15.68 22.262-36.68 23.941-62.578zm-239.26 94.922c-7.8398 6.8594-20.301 19.18-29.539 34.16-10.922 17.5-17.078 38.641-10.078 59.5 20.859 62.719 79.238 65.52 111.3 65.52 32.059 0 90.441-2.9414 111.3-65.52 7-20.859 0.69922-42-10.078-59.5-9.2383-14.98-21.699-27.301-29.539-34.16 2.3789-8.6797 1.5391-17.922-3.0781-27.301-5.3203-10.5-12.039-16.66-19.039-20.02-10.641-5.0391-22.398-4.1992-33.039-0.14062-6.3008 2.3789-11.898 5.7383-16.379 8.6797-4.4805-3.0781-10.219-6.4414-16.379-8.6797-10.641-3.9219-22.398-4.8984-33.039 0.14062-7 3.3594-13.859 9.3789-19.039 20.02-4.6211 9.3789-5.4609 18.621-3.0781 27.301zm15.121 23.941c-6.1602 5.7383-14.422 14.559-20.859 24.922-6.5781 10.641-11.621 23.238-7.4219 35.98 15.68 46.898 60.762 46.48 84.699 46.48 23.941 0 69.16 0.42187 84.699-46.48 4.1992-12.738-0.69922-25.199-7.4219-35.98-6.4414-10.359-14.699-19.039-20.859-24.922-11.199 10.5-27.02 18.34-42.141 21.559 0.98047 12.18 3.6406 20.441 9.5195 25.059 4.4805 3.6406 10.641 4.4805 18.199 4.4805 7.5586 0 14 6.3008 14 14s-6.3008 14-14 14c-14.98 0-26.738-3.5-35.559-10.641-2.2383-1.8203-4.4805-3.9219-6.4414-6.3008-1.9609 2.3789-4.0586 4.4805-6.4414 6.3008-8.9609 7.1406-20.719 10.641-35.559 10.641-7.6992 0-14-6.3008-14-14s6.3008-14 14-14 13.578-0.98047 18.199-4.4805c5.8789-4.7617 8.5391-12.879 9.5195-25.059-14.98-3.2188-30.941-11.059-42.141-21.559zm56.422-4.7617c-13.301 0-30.52-7.4219-39.762-18.199-4.0586-4.6211-6.5781-10.078-3.6406-15.82 1.8203-3.6406 3.7812-6.0195 6.1602-7.2812 3.5-1.6797 7.4219-0.55859 11.059 0.83984 9.2383 3.5 16.801 10.5 16.801 10.5 5.3203 4.8984 13.719 4.8984 19.039 0 0 0 7.5586-7 16.801-10.5 3.5-1.3984 7.4219-2.5195 11.059-0.83984 2.3789 1.1211 4.3398 3.6406 6.1602 7.2812 2.8008 5.7383 0.28125 11.199-3.6406 15.82-9.2383 10.781-26.602 18.199-39.762 18.199zm157.78-219.52c-2.8008 2.9414-4.1992 7.1406-3.6406 11.34 0.69922 5.7383 4.8984 10.359 10.5 11.762 0 0 19.461 4.3398 24.219 20.578 2.2383 7.4219 0.83984 17.078-5.3203 29.539-3.5 6.8594-10.781 5.0391-16.941 3.3594-10.078-2.9414-18.898-8.6797-18.898-8.6797-3.0781-2.1016-6.8594-2.8008-10.5-2.1016s-6.8594 2.9414-8.9609 6.0195c-6.8594 10.5-14.141 16.801-22.539 18.199-8.6797 1.5391-18.059-1.8203-28.141-8.3984-5.0391-3.2188-11.621-2.9414-16.238 0.83984-11.898 9.5195-21.699 14.141-30.66 13.719-7.8398-0.42188-14.141-5.1797-20.02-11.898-2.6602-3.0781-6.5781-4.8984-10.641-4.8984-4.0586 0-7.9805 1.8203-10.641 4.8984-5.8789 6.8594-12.18 11.48-20.02 11.898-8.8203 0.42188-18.762-4.1992-30.66-13.719-4.7617-3.7812-11.199-4.0586-16.238-0.83984-10.219 6.4414-19.461 9.9414-28.141 8.3984-8.5391-1.5391-15.68-7.8398-22.539-18.199-2.1016-3.0781-5.1797-5.3203-8.9609-6.0195s-7.4219 0-10.5 2.1016c0 0-8.6797 5.7383-18.898 8.6797-6.0195 1.6797-13.441 3.6406-16.941-3.3594-6.3008-12.461-7.5586-22.121-5.3203-29.539 4.7617-16.238 24.219-20.578 24.219-20.578 5.6016-1.3984 9.8008-6.0195 10.5-11.762 0.55859-4.1992-0.83984-8.3984-3.6406-11.34 0.14062-2.1016 0.69922-7.4219 1.9609-11.199 2.3789-6.5781 6.3008-13.301 11.762-17.922 3.9219-3.3594 8.6797-5.3203 14.422-3.7812 5.8789 1.5391 12.18-0.83984 15.398-6.0195 10.359-16.52 24.641-23.52 42.559-21.559 7.4219 0.83984 14.141-4.1992 15.398-11.621 2.9414-17.219 28-24.781 46.34-6.4414 5.4609 5.4609 14.281 5.4609 19.879 0 18.34-18.34 43.398-10.781 46.34 6.4414 1.2617 7.2812 7.9805 12.32 15.398 11.621 17.922-1.9609 32.199 5.0391 42.559 21.559 3.2188 5.1797 9.5195 7.5586 15.398 6.0195 5.7383-1.5391 10.5 0.42188 14.422 3.7812 5.4609 4.6211 9.3789 11.48 11.762 17.922 1.3984 3.7812 1.8203 9.1016 1.9609 11.199zm-409.36-100.11c0.55859 23.941 2.1016 46.199 6.4414 66.5 5.1797 24.641 14.422 46.199 31.781 63.559 3.9219-8.8203 9.9414-15.539 16.379-20.578-18.898-46.762-34.719-78.82-54.461-109.48zm503.44 0c-19.738 30.52-35.559 62.578-54.461 109.48 6.4414 5.0391 12.602 11.762 16.379 20.578 17.219-17.359 26.602-38.922 31.781-63.559 4.1992-20.301 5.8789-42.559 6.4414-66.5zm-25.34-12.461c-24.781 15.398-44.238 38.078-57.961 68.18 5.1797 6.0195 9.3789 13.16 12.32 20.301 15.262-35.559 29.262-62.719 45.641-88.48zm-452.76 0.003906c16.52 25.762 30.379 52.922 45.641 88.48 2.9414-7.1406 7.1406-14.281 12.32-20.301-13.859-30.238-33.32-52.781-57.961-68.18z" fill-rule="evenodd"/>
</svg>
