<?xml version="1.0" encoding="UTF-8"?>
<svg width="20pt" height="20pt" version="1.1" viewBox="0 0 700 700" xmlns="http://www.w3.org/2000/svg">
 <path d="m154.09 264.02c1.543 28.73 9.3906 52.832 23.543 71.75-12.895 17.238-35.035 55.074-23.402 101.46 25.926 103.84 135.23 122.76 195.78 122.76 60.539 0 169.85-18.918 195.78-122.76 11.633-46.387-10.512-84.223-23.402-101.46 14.016-19.059 21.863-43.023 23.543-71.75-1.2617 0-2.5234-0.14063-3.7852-0.28125-12.332-1.2617-24.945-5.4648-33.492-8.9688-22.422 24.246-58.156 27.746-87.309 13.594-15.695 10.789-29.711 14.715-41.902 14.152-10.652-0.5625-20.461-4.4844-29.289-11.352-8.8281 6.8672-18.5 10.789-29.289 11.352-12.191 0.5625-26.207-3.3633-41.902-14.152-29.148 14.152-64.887 10.652-87.309-13.594-8.5469 3.3633-21.301 7.5664-33.492 8.9688-1.2617 0-2.5234 0.28125-3.7852 0.28125zm267.53 94.594c2.3828-8.6875 1.543-17.938-3.082-27.328-5.3242-10.512-12.051-16.676-19.059-20.039-10.652-5.0469-22.422-4.2031-33.074-0.14062-6.3047 2.3828-11.91 5.7461-16.395 8.6875-4.4844-3.082-10.23-6.4453-16.395-8.6875-10.652-3.9258-22.422-4.9062-33.074 0.14062-7.0078 3.3633-13.875 9.3906-19.059 20.039-4.625 9.3906-5.4648 18.637-3.082 27.328-7.8477 6.8672-20.32 19.199-29.57 34.195-10.93 17.516-17.098 38.68-10.09 59.559 20.883 62.781 79.32 65.586 111.41 65.586 32.094 0 90.531-2.9414 111.41-65.586 7.0078-20.883 0.69922-42.043-10.09-59.559-9.25-14.996-21.723-27.328-29.57-34.195zm-128.23 23.965c-6.168 5.7461-14.434 14.574-20.883 24.945-6.5859 10.652-11.633 23.262-7.4258 36.016 15.695 46.945 60.82 46.527 84.785 46.527 23.965 0 69.23 0.42188 84.785-46.527 4.2031-12.754-0.69922-25.227-7.4258-36.016-6.4453-10.371-14.715-19.059-20.883-24.945-11.211 10.512-27.047 18.359-42.184 21.582 0.98047 12.191 3.6445 20.461 9.5312 25.086 4.4844 3.6445 10.652 4.4844 18.219 4.4844s14.016 6.3047 14.016 14.016c0 7.707-6.3047 14.016-14.016 14.016-14.996 0-26.766-3.5039-35.594-10.652-2.2422-1.8203-4.4844-3.9258-6.4453-6.3047-1.9609 2.3828-4.0625 4.4844-6.4453 6.3047-8.9688 7.1484-20.742 10.652-35.594 10.652-7.707 0-14.016-6.3047-14.016-14.016 0-7.707 6.3047-14.016 14.016-14.016 7.707 0 13.594-0.98047 18.219-4.4844 5.8867-4.7656 8.5469-12.895 9.5312-25.086-14.996-3.2227-30.973-11.07-42.184-21.582zm56.477-4.7656c-13.312 0-30.551-7.4258-39.801-18.219-4.0625-4.625-6.5859-10.09-3.6445-15.836 1.8203-3.6445 3.7852-6.0273 6.168-7.2891 3.5039-1.6836 7.4258-0.5625 11.07 0.83984 9.25 3.5039 16.816 10.512 16.816 10.512 5.3242 4.9062 13.734 4.9062 19.059 0 0 0 7.5664-7.0078 16.816-10.512 3.5039-1.4023 7.4258-2.5234 11.07-0.83984 2.3828 1.1211 4.3438 3.6445 6.168 7.2891 2.8047 5.7461 0.28125 11.211-3.6445 15.836-9.25 10.789-26.625 18.219-39.801 18.219zm-215.4-151.07c1.1211 4.3438 7.5664 8.4102 10.09 8.8281 3.2227 0.69922 6.7266 0.5625 10.371 0.28125 16.816-1.8203 34.473-10.652 34.473-10.652 6.3047-3.2227 14.152-1.1211 17.938 4.9062 14.574 22.141 43.723 23.402 64.887 9.9492 5.0469-3.2227 11.633-2.9414 16.258 0.83984 11.91 9.5312 21.723 14.152 30.691 13.734 7.8477-0.42187 14.152-5.1836 20.039-11.91 2.6641-3.082 6.5859-4.9062 10.652-4.9062 4.0625 0 7.9883 1.8203 10.652 4.9062 5.8867 6.8672 12.191 11.492 20.039 11.91 8.8281 0.42188 18.777-4.2031 30.691-13.734 4.7656-3.7852 11.211-4.0625 16.258-0.83984 21.16 13.453 50.309 12.332 64.887-9.9492 3.9258-5.8867 11.633-7.9883 17.938-4.9062 0 0 17.656 8.9688 34.473 10.652 3.6445 0.42188 7.1484 0.42188 10.371-0.28125 2.6641-0.5625 8.9688-4.4844 10.09-8.8281 1.8203-7.0078 3.082-23.965 0.42188-32.793-5.1836-17.516-19.059-28.027-29.988-33.914 0.28125-3.6445 0-7.707-0.83984-11.91-2.2422-11.773-8.5469-25.926-18.359-36.156-8.9688-9.5312-20.742-15.836-34.195-15.414-14.016-18.078-31.672-27.047-52.691-27.469-12.473-25.367-48.629-39.801-79.879-17.797-31.391-21.863-67.406-7.5664-79.879 17.797-21.16 0.42188-38.82 9.25-52.691 27.469-13.453-0.42188-25.227 5.7461-34.195 15.273-9.668 10.23-16.117 24.383-18.359 36.156-0.83984 4.3438-0.98047 8.4102-0.83984 11.91-10.93 5.7461-24.805 16.395-29.988 33.914-2.6641 8.8281-1.2617 25.926 0.42188 32.793zm0.42188-82.402c-8.9688 6.3047-18.078 15.555-22.004 29.008-2.3828 8.1289-1.543 22.984 0 30.832-19.059-20.602-29.852-45.547-35.734-73.992-6.7266-31.531-7.4297-67.828-7.4297-107.21 25.504 35.594 43.582 69.09 65.164 121.36zm430.23 0c8.9688 6.3047 18.078 15.555 22.004 29.008 2.3828 8.1289 1.543 22.984 0 30.832 19.059-20.602 29.852-45.547 35.734-73.992 6.7266-31.672 7.2891-67.828 7.2891-107.35-25.645 35.594-43.582 69.09-65.164 121.36zm-372.21-68.387c-12.191 0.5625-22.703 6.5859-30.973 15.273-4.7656 5.0469-8.6875 11.07-11.773 17.238-19.617-43.863-37.555-74.836-62.5-108.47 44.984 11.91 80.301 36.996 105.11 75.957zm314.34 0c12.191 0.5625 22.703 6.5859 30.973 15.273 4.7656 5.0469 8.6875 11.07 11.773 17.238 19.48-44.004 37.559-74.836 62.363-108.47-44.984 11.91-80.301 36.996-105.11 75.957z" fill-rule="evenodd"/>
</svg>
